<?xml version="1.0" standalone="no"?>
<!DOCTYPE svg PUBLIC "-//W3C//DTD SVG 20010904//EN"
 "http://www.w3.org/TR/2001/REC-SVG-20010904/DTD/svg10.dtd">
<svg version="1.0" xmlns="http://www.w3.org/2000/svg"
 width="16.000000pt" height="16.000000pt" viewBox="0 0 16.000000 16.000000"
 preserveAspectRatio="xMidYMid meet">
<metadata>
Created by potrace 1.11, written by Peter Selinger 2001-2013
</metadata>
<g transform="translate(0.000000,16.000000) scale(0.001835,-0.001835)"
fill="#000000" stroke="none">
<path d="M7046 5803 c-1 -1 -78 -5 -172 -9 -93 -3 -173 -7 -179 -8 -8 -1 -61
-195 -110 -396 -21 -88 -82 -340 -156 -640 -50 -201 -92 -373 -94 -383 -2 -10
-7 -27 -10 -37 -3 -10 -8 -27 -10 -37 -4 -19 -81 -335 -140 -574 -19 -79 -37
-153 -39 -164 -2 -11 -7 -27 -10 -35 -3 -8 -7 -26 -10 -40 -2 -14 -13 -61 -24
-105 -11 -44 -23 -92 -26 -108 l-6 -27 62 4 c35 3 137 8 228 11 199 8 240 12
247 19 3 3 26 99 50 213 25 114 48 211 51 215 4 3 70 9 147 13 77 3 176 8 220
10 44 2 141 7 215 10 l136 6 17 -58 c10 -32 41 -129 68 -216 l50 -158 101 6
c144 8 367 18 406 17 29 0 32 3 26 22 -9 31 -140 415 -180 527 -19 53 -50 143
-70 200 -19 57 -53 156 -74 219 -77 224 -97 280 -103 287 -4 3 -7 13 -7 20 0
8 -33 109 -74 226 -41 117 -100 286 -131 377 -31 91 -79 230 -107 310 -28 80
-62 178 -76 217 l-25 73 -94 -3 c-52 -1 -96 -3 -97 -4z m30 -1009 c41 -131 79
-248 84 -259 13 -31 90 -281 90 -294 0 -7 -24 -11 -67 -12 -38 -1 -84 -2 -103
-4 -72 -6 -270 -14 -270 -10 0 2 41 186 90 409 50 224 90 409 90 413 0 22 18
-29 86 -243z"/>
<path d="M5107 5714 c-1 -1 -79 -5 -174 -9 -219 -8 -214 -8 -219 -38 -1 -7
-11 -51 -22 -97 -22 -88 -91 -374 -97 -400 -18 -80 -62 -265 -95 -400 -53
-218 -80 -328 -86 -365 -3 -16 -9 -35 -13 -42 -3 -7 -39 83 -78 200 -39 117
-122 358 -183 537 -62 179 -121 352 -132 385 -11 33 -29 86 -40 118 l-21 58
-101 -5 c-56 -3 -157 -8 -226 -12 -69 -3 -136 -6 -150 -7 -17 -1 -25 -8 -26
-22 -5 -64 -15 -195 -19 -225 -2 -19 -7 -69 -10 -110 -3 -41 -8 -97 -10 -125
-4 -48 -9 -105 -20 -238 -7 -88 -14 -163 -20 -227 -4 -53 -9 -108 -20 -250 -6
-65 -11 -124 -20 -222 -3 -29 -7 -84 -10 -123 -3 -38 -7 -88 -10 -110 -2 -22
-7 -74 -10 -115 -3 -41 -8 -97 -10 -125 -3 -27 -7 -79 -10 -115 -3 -36 -7 -91
-10 -122 -6 -68 -14 -161 -20 -238 -3 -30 -8 -78 -11 -107 l-6 -52 98 5 c179
9 248 12 319 13 39 1 75 5 82 9 7 4 14 49 18 112 3 58 8 130 10 160 2 30 7 91
10 135 3 44 8 107 10 140 2 33 7 101 10 150 4 50 8 110 10 135 2 25 7 95 10
155 4 61 9 128 11 150 5 49 17 242 18 273 0 33 11 15 39 -68 14 -41 76 -217
137 -390 61 -173 125 -353 141 -400 16 -47 65 -184 107 -305 l78 -220 100 3
c54 2 101 6 103 8 2 2 12 34 22 71 10 38 32 120 49 183 17 63 33 122 35 130 5
24 75 285 176 655 50 187 95 356 98 375 8 42 17 25 26 -48 4 -26 9 -58 11 -72
3 -14 9 -52 15 -85 5 -33 12 -71 15 -85 2 -14 11 -68 19 -120 20 -131 26 -169
31 -194 2 -11 13 -77 24 -146 11 -69 22 -134 24 -145 2 -11 9 -54 16 -95 6
-41 13 -86 16 -100 2 -14 9 -56 15 -95 6 -38 13 -77 14 -85 2 -8 6 -38 10 -67
l7 -51 87 3 c47 2 154 7 236 11 83 4 158 6 168 6 15 -1 17 4 13 26 -3 15 -13
68 -21 117 -19 106 -53 299 -60 335 -3 14 -9 50 -14 80 -6 30 -17 93 -25 140
-9 47 -25 137 -36 200 -11 63 -22 125 -25 138 -2 13 -13 76 -24 140 -12 64
-23 128 -26 142 -3 14 -12 63 -20 110 -20 111 -23 130 -40 225 -8 44 -17 98
-20 120 -4 22 -8 47 -10 55 -2 8 -7 31 -10 50 -3 19 -10 58 -15 85 -5 28 -12
64 -15 80 -3 17 -8 44 -11 60 -3 17 -7 39 -9 50 -1 11 -12 74 -24 140 -12 66
-24 136 -27 155 -3 19 -8 38 -10 42 -4 6 -111 7 -117 2z"/>
<path d="M1806 5563 c-1 -1 -74 -5 -161 -9 -88 -3 -171 -7 -185 -9 -22 -2 -27
-11 -43 -66 -9 -35 -19 -73 -21 -84 -2 -11 -9 -40 -16 -65 -7 -25 -14 -53 -16
-64 -3 -16 -94 -391 -111 -456 -3 -14 -7 -29 -9 -35 -8 -32 -77 -312 -78 -320
-1 -5 -5 -19 -9 -30 -3 -11 -8 -31 -11 -45 -2 -14 -9 -45 -16 -70 -7 -25 -14
-52 -15 -60 -2 -8 -20 -80 -40 -160 -20 -80 -38 -156 -41 -169 -3 -13 -23 -96
-45 -185 -23 -88 -42 -168 -44 -176 -2 -8 -33 -136 -69 -283 -36 -147 -66
-270 -66 -272 0 -2 30 -2 68 0 119 6 426 19 449 18 19 -1 24 8 37 66 12 52 59
273 70 326 11 52 15 55 84 56 37 1 90 2 117 4 28 1 118 5 200 9 83 3 191 8
241 12 l90 5 13 -43 c7 -24 37 -121 68 -217 l55 -173 111 6 c62 4 180 9 262
12 83 3 153 9 158 13 4 4 0 27 -9 52 -8 24 -58 166 -109 314 -51 149 -135 389
-185 535 -51 146 -95 276 -100 290 -4 14 -45 131 -90 260 -45 129 -129 372
-186 540 -58 168 -108 312 -111 320 -3 8 -7 17 -8 20 0 3 -11 36 -24 73 l-23
68 -90 -3 c-49 -2 -90 -4 -92 -5z m-12 -909 c25 -76 72 -224 106 -329 34 -104
72 -223 85 -262 l23 -73 -57 -1 c-31 -1 -76 -2 -101 -4 -179 -10 -290 -14
-290 -10 0 6 57 264 75 340 8 33 16 71 19 85 8 41 15 71 20 88 3 9 7 29 10 44
10 57 60 268 63 264 2 -1 23 -65 47 -142z"/>
</g>
</svg>
